<svg id="F_logo" xmlns="http://www.w3.org/2000/svg" viewBox="0 0 289.5 550"><defs><style>.cls-1{stroke:#000;stroke-miterlimit:10;}</style></defs><title>F_logo</title><path class="cls-1" d="M320.89,171.79s62.66-105.3,114.56-42.08c49.23,60-20.65,116.12-35.07,133.27-13.87,16.5-32.48,38.25-63.12,72.47-33.48,37.4-63.44,65.33-77.16,95.86-5.39,12,5.15,26.47,28.06,0,61.9-71.52,114.56-133.26,114.56-133.26s42.08-58.45,86.51-16.37C528.85,319.22,477.54,374,477.54,374L365.31,508.47c2.23,0-33.15,28.06-16.36,49.1,15.5,19.42,51.43,56.11,51.43,56.11s9.95,12.18,23.38-4.68c10.42-13.07-14.09-32.14-13.77-34.9,0-.21-5.95-5.85-6.12-6l-15.18-15.21a57.19,57.19,0,0,0-5.14-4.21c-13.66-7.58,3.26-42.47,26.18-23.85,37.41,30.4,45.91,55.37,46.76,53.78,0,0,22,58.4-28.05,77.15-37.41,14-67.8-30.39-67.8-30.39l-46.76-53.78s-21.05-37.4,7-70.14c66.84-78,77.15-91.18,77.15-91.18L444.8,356.5l14-18.71,5.33-9.32a14.46,14.46,0,0,0-.8-15.61c-4.74-6.6-12.44-13.06-20.89-3.12-14,16.41-138,166-138,166s-42.08,37.4-74.81-2.34,2.34-79.49,2.34-79.49l44.42-53.78L391,204.53s16.68-17.72,16.37-30.4c-.28-11.19-16.3-16.44-32.74,0-35.07,35.07-35.07,32.73-35.07,32.73C334.92,211.54,301.6,203.81,320.89,171.79Z" transform="translate(-215.24 -109)"/></svg>